<svg height="20" viewBox="0 0 105 20" width="105" xmlns="http://www.w3.org/2000/svg" xmlns:xlink="http://www.w3.org/1999/xlink"><mask id="a" fill="#fff"><path d="m.51.44h4.71v3.42h-4.71z" fill="#fff" fill-rule="evenodd"/></mask><mask id="b" fill="#fff"><path d="m.41.24h16.74v14.6h-16.74z" fill="#fff" fill-rule="evenodd"/></mask><mask id="c" fill="#fff"><path d="m0 .27h12.58v10.49h-12.58z" fill="#fff" fill-rule="evenodd"/></mask><g fill="none" fill-rule="evenodd"><path d="m56.94 9.07-1.18 2.7s-.23.74-1.36.74l-2.67-.1 1.72-4.35h2.9s.81 0 .59 1.01m2.57-4.08-10.98.05-1.14 2.88h1.23s.67.23.4.97l-4.2 10.63h4.16l1.63-3.99h5.01s2.44-.04 3.8-2.43l2.26-5.68s.73-1.93-2.17-2.43m9.45 7.51h-3.03s-.63-.08-.31-1.18c0 0 .94-3.3 2.3-3.4l2.67.1-1.63 4.49zm4.66-1.6 2.35-5.86h-8.68s-3.48.36-4.43 2.66l-1.86 4.49s-.9 2.93 1.59 3.16h11.21l1.18-2.84s-2.13.27-1.36-1.6z" fill="#373379"/><path d="m84.3 9.62-3.14 2.01c-.48.26-.75-.08-.75-.08l-1.26-1.45c-.34-.42.2-1.05.2-1.05l2.4-1.56c1.06-.45 1.48.03 1.48.03l1.06 1.05c.37.57 0 1.05 0 1.05m4.36-1.53-1.53-1.67c-.65-.6.05-1.2.05-1.2l.76-.53-1.93-2.1c-5.8 2.95-10.52 6.2-10.52 6.2-.9 1.11-.05 2.39-.05 2.39l3.66 3.86c.36 1.05-.7 1.27-.7 1.27l-2.6-.03-1.29 2.87 4.65-.06c3.6-1.84 4.61-3.32 4.61-3.32.64-.9-.03-1.84-.03-1.84-.47-.6.31-.85.31-.85 3-1.67 4.4-3.03 4.4-3.03.75-.94.21-1.96.21-1.96m10.91 2.46a32.9 32.9 0 0 1 -2.83 1.64c-.9.48-1.53.06-1.53.06a8.4 8.4 0 0 1 -1.35-1.36c-.33-.37.03-.91.03-.91.56-.57 2.94-1.79 2.94-1.79.56-.37 1.45.09 1.45.09l1.29 1.19c.53.5 0 1.08 0 1.08m4.64-2.1s-3.13-3.15-3.89-3.46c0 0-1.67-.77-3.3.03 0 0-4.92 2.5-7.21 4.05 0 0-1.43 1.1-.9 2.52 0 0 2.91 3.44 3.8 3.86 0 0 1.12.8 3.08.2 0 0 5.6-2.18 8.4-4.88 0 0 .83-.96.02-2.32" fill="#373379"/><g fill="#e83f2e"><path d="m46.79 5.04h-4.14s-2.63 6.5-2.88 7.38c0 0-.5 1.58.25 2.2 0 0 .81.83 1.7.83l2.88-.03 1.24-2.89h-.93s-1.06-.23-.61-1.25z"/><path d="m2.25.64s1.54-.5 2.4.09c0 0 1.12.68.23 1.9 0 0-.7 1.19-2.63 1.22 0 0-1.62.2-1.74-1.17 0 0-.08-1.39 1.74-2.04" mask="url(#a)" transform="translate(42.64 .2)"/><path d="m12.33 4.4c0 .57-1.07 2.61-1.07 2.61-.53.74-1.4.74-1.4.74h-2.64l1.78-4.4h2.77c.95.03.56 1.05.56 1.05m4.27-3.43s-.56-.62-1.96-.73l-10.54.03-1.1 2.93h.9s.98 0 .42 1.45l-3.91 10.16 4.12.03 1.5-4.17 5.35.03s1.54.17 2.93-1.56c0 0 2.13-3.43 2.69-6.01 0 0 .53-1.42-.4-2.16" mask="url(#b)" transform="translate(22.9 4.72)"/><path d="m18.8 12.42-2.78.05s-1-.05-.55-1.39c0 0 .5-1.78 1.06-2.38 0 0 .36-.68 1.45-.68l2.43.06-1.62 4.34zm4.7-1.62 2.31-5.81-8.33-.03c-1.26 0-2.66.65-2.66.65-1.62.8-1.98 1.93-1.98 1.93-.62.94-1.88 4.54-1.88 4.54-.72 1.78 0 2.4 0 2.4.7 1 2.04.97 2.04.97l10.69.03 1.17-2.86-1.31-.23c-.65-.31-.06-1.59-.06-1.59z"/><path d="m12.58.3-1.23 3h-3.27s-.9-.17-1.45 1.1l-2.44 6.3-4.19.06 4.08-10.5 8.5.03z" mask="url(#c)" transform="translate(0 4.72)"/></g></g></svg>
