<svg height="55" viewBox="0 0 70 55" width="70" xmlns="http://www.w3.org/2000/svg" xmlns:xlink="http://www.w3.org/1999/xlink"><mask id="a" fill="#fff"><path d="m.12.18h65.5v54.57h-65.5z" fill="#fff" fill-rule="evenodd"/></mask><g fill="none" fill-rule="evenodd"><path d="m46.77 34.02s-.48.07-.4-.75c.06-.81.26-.68.67-1.02.4-.34.75-.81.75-.13s-.07 1.02-.41 1.42c-.34.41-.61.48-.61.48zm-10.49 3s1.51-1.8 1.73-2.38 1.15-.65 1.08 0-1.58 1.95-1.58 1.95-.72.86-1.08.86-.15-.43-.15-.43zm-28.43-27.12 37.04-9.72 6.5 24.09 14.23-3.69-13.65 17.94-.14.03s-1.24.34-1.64.12c-.4-.23.45-1.81.9-2.89.46-1.07 1.3-3.68 2.04-5.15.73-1.47 1.8-2.66 2.09-2.77.28-.11.45-1.13.34-1.59-.12-.45 0-.96-.46-.96-.45 0-.79 1.36-1.4 2.15-.63.8-2.04 3.47-3.23 5.93a28.2 28.2 0 0 1 -4.67 6.42c-1.24.99-.24-.92-.13-1.48.12-.57.85-2.15.85-2.15s1.02-1.13-.28-.74c-1.3.4-2.49 2.32-2.49 2.32s-3.22 4.02-4.35 4.81c-1.13.8-.84-.45-.62-1.7.23-1.24 1.64-2.71 1.64-2.71l.56-.23s-.33 1.25-.05 1.19.62-.57.68-1.02c.05-.45 0-2.32-.34-2.1a26.1 26.1 0 0 0 -2.71 2.55c-.57.68-2.6 3.23-3.34 4.42-.73 1.19-.22-.63-.22-.63s.28-1.01.34-1.47c.05-.45-.57-.22-.57-.22l-.84.85s-.17.17-.17.84c0 .68-.85 1.65-1.7 2.15-.85.51-.5-.45-.5-.45s.28-1.19 1.12-2.6c.85-1.42 1.75-1.53 2.26-1.76.51-.22.28-.56.11-.84-.16-.29-.72-.08-.9.05-.39.3-6.67 5.57-6.94 6.51-.28.94.62.23.62.23l2.48-2.71.11-.12-.05.62s-.74 1.3-.57 2.2c.19.74.74.58 1.13.55.4-.05 1.19-1.17 1.7-1.56.5-.4.56.05.73.4.17.33.9-.12.9-.12s1.7-2.32 2.1-2.83c.39-.5.9-.5.9-.5s-.23.67.34 1.58c.56.9 1.58.22 2.2-.17.62-.4 2.6-2.89 3.05-3.51s1.07-.74 1.07-.74-.34 1.98-.22 2.5c.1.5.96.62 1.97-.35 1.02-.96 3.15-4.1 3.15-4.1s-.55 1.56-.38 2.75c.17 1.18 1.18.84 1.62.7.35-.23.75-.44 1.08-.62l-11.52 15.15-15.74-6.9 2.31-6.92 3.41-1.08c.17-.4.35-.98.73-1.65.37-.68-.52-.53-.52-.53s-1.54 1.13-2.2 1.36c-.94.48-.57-.53-.57-.53s1.34-2.78 1.8-3.9c.44-1.13 1.71-1.13 2.76-1.58s8.16-2.7 9.36-3.15.97-2.25.97-2.25-1.27.68-2.24.98c-.98.3-7.56 2.85-8.31 3.22-.75.38-.38-.3-.38-.82 0-.53-.37-.3-.37-.3s-.9.45-1.5.6-.97 1.2-.97 1.2-5.92 2.7-7.19 4.2.75.82.75.82 5.69-3.37 5.24-2.55c-.45.83-2.4 5.4-2.4 5.4s-1.87 1.28-2.54 1.8c-.67.53-.37 1.58-.37 1.58s2.69-2.18 2.4-1.5a80.3 80.3 0 0 0 -1.42 5.05l-22.51-9.88 13.74-3.69z" fill="#e73292" mask="url(#a)" transform="translate(4.28 .07)"/><path d="m57.8 10.86c-2.46.64-3.17 2.5-2.13 5.59.78 1.53 2.05 2.07 3.83 1.6 1.4-.36 2.26-1.1 2.56-2.24a4.6 4.6 0 0 0 -.38-3.34 3.18 3.18 0 0 0 -1.51-1.52 3.47 3.47 0 0 0 -2.37-.1zm-.67-3.12c2.55-.66 4.67-.7 6.39-.09.81.29 1.55.7 2.21 1.22a5.78 5.78 0 0 1 1.5 1.9l.32.63.16.54a5.96 5.96 0 0 1 -.18 3.62 7.53 7.53 0 0 1 -2.55 3.36c-1.27 1-2.86 1.75-4.76 2.25-2.58.67-4.73.7-6.46.07a6.17 6.17 0 0 1 -3.65-3l-.16-.5-.2-.56-.17-.5a6.37 6.37 0 0 1 .25-3.53 7.52 7.52 0 0 1 2.53-3.17c1.26-1 2.85-1.74 4.77-2.24zm-34.36 18.18 3.57-.93-2.84-4.1zm-3.02-8.11 5.78-1.5 9.15 11.12-5.64 1.46-1.09-1.51-5.66 1.47-.24 1.86-5.52 1.43zm-11.93 6.24.62 2.84 2.44-.64a2.9 2.9 0 0 0 1.59-.92c.35-.44.4-.89.18-1.35-.35-.7-1.4-.82-3.15-.36zm26.68-9.69h.05l.57-.37c1.04-.62 2.29-1.13 3.74-1.5.79-.2 1.48-.35 2.07-.42.6-.07 1.25-.1 1.96-.05 1.22.06 2.29.34 3.2.85.9.5 1.58 1.21 2.04 2.13l.04.07-3.06.8v1.43l3.58-.93 1.6 7.04-3.6.93-.53-1.17c-.3.4-.65.77-1.05 1.1v.03h-.03a9.64 9.64 0 0 1 -3.73 1.77c-2.2.57-4.15.58-5.83.03a5.8 5.8 0 0 1 -3.57-2.9l-.35-.76-.15-.69c-.47-2-.08-3.84 1.15-5.52.5-.69 1.14-1.3 1.9-1.83zm-33.04 8.2 8.28-2.15c1.5-.4 2.77-.58 3.79-.55a5.96 5.96 0 0 1 2.69.49c.71.34 1.25.87 1.61 1.59.15.3.27.64.36 1.03.57 2.87-1.47 4.91-6.15 6.13l-2.9.75.93 3.97-5.66 1.47z" fill="#fefefe"/><path d="m57.02 15.88c.38.71.89 1.08 2.11.77 1.14-.3 1.41-.8 1.52-1.21.2-.79.12-1.54-.27-2.31-.21-.42-.47-.7-.82-.86-.33-.15-.8-.15-1.4 0-1 .26-1.23.7-1.3.83-.3.57-.25 1.52.16 2.78zm1.31 3.8c-1.73 0-3.1-.88-3.96-2.57a1.47 1.47 0 0 1 -.07-.2c-.72-2.11-.72-3.86 0-5.2a4.71 4.71 0 0 1 3.14-2.26 4.89 4.89 0 0 1 3.34.17c.95.44 1.7 1.18 2.2 2.2.71 1.41.88 2.88.49 4.36-.3 1.15-1.18 2.66-3.6 3.29-.54.14-1.05.2-1.54.2zm-49.9 8.67a1.45 1.45 0 0 1 -1.42-1.15l-.61-2.84c-.16-.76.3-1.52 1.06-1.72l1.68-.44c2.49-.64 4.1-.27 4.8 1.12.5.98.37 2.05-.34 2.93a4.32 4.32 0 0 1 -2.35 1.42l-2.45.63c-.12.03-.24.05-.36.05zm43.03-10.69c.53 1 1.45 1.73 2.78 2.2 1.45.52 3.33.48 5.61-.1 1.7-.45 3.12-1.11 4.22-1.99a6.14 6.14 0 0 0 2.1-2.7 4.5 4.5 0 0 0 .14-2.73l-.12-.4-.26-.51a4.58 4.58 0 0 0 -1.11-1.43 6.2 6.2 0 0 0 -1.79-.98c-1.42-.5-3.29-.46-5.53.12a11.45 11.45 0 0 0 -4.24 1.98 6.15 6.15 0 0 0 -2.06 2.53c-.32.83-.38 1.7-.21 2.65l.33.95.01.03.13.37zm-18.2 4.9a4.36 4.36 0 0 0 2.71 2.16c1.4.46 3.09.44 5.01-.06a8.26 8.26 0 0 0 3.18-1.5h.01v-.01c.32-.26.6-.55.83-.85a1.45 1.45 0 0 1 2.49.26l.02.06 1.05-.27-.96-4.19-2.13.56a1.46 1.46 0 0 1 -1.82-1.42v-1.44c0-.66.45-1.24 1.09-1.41l.8-.2a5.73 5.73 0 0 0 -2.72-.76 9.54 9.54 0 0 0 -1.7.03c-.54.06-1.17.2-1.89.38a12.78 12.78 0 0 0 -3.87 1.68l-.02.01c-.63.44-1.16.95-1.56 1.5a5.03 5.03 0 0 0 -.92 4.33l.13.55.27.58zm-13.7 2.7-1.08 4.87 2.25-.59.11-.87c.07-.6.5-1.08 1.08-1.23l.45-.12a1.45 1.45 0 0 1 -1.05-1.61l.74-5.02a1.46 1.46 0 0 1 2.63-.63l2.85 4.1a1.46 1.46 0 0 1 -.17 1.86l.21-.05c.59-.16 1.2.07 1.55.56l.5.7 2.47-.64-7.1-8.64-4.03 1.05-1.31 5.85c-.02.14-.06.28-.1.42zm-16.36-1.63 2.29 9.88 2.84-.73-.6-2.58a1.46 1.46 0 0 1 1.04-1.75l2.9-.76c3.62-.93 4.76-2.14 5.07-3.1l.08-.38a2.99 2.99 0 0 0 -.29-1.6 1.96 1.96 0 0 0 -.94-.94 4.6 4.6 0 0 0 -2.04-.35h-.05a13.1 13.1 0 0 0 -3.4.51zm1.2 13.12a1.45 1.45 0 0 1 -1.42-1.13l-2.94-12.72a1.46 1.46 0 0 1 1.05-1.74l8.28-2.16c1.64-.43 3-.62 4.16-.6 1.3-.02 2.4.2 3.32.63.36.17.7.38.99.63l.49-2.17c.12-.53.52-.96 1.05-1.1l5.79-1.5c.55-.14 1.13.05 1.49.49l3.19 3.88a8.08 8.08 0 0 1 1.58-3.9 9.53 9.53 0 0 1 2-2c.14-.14.31-.26.5-.34l.44-.28c1.15-.7 2.54-1.25 4.13-1.67.84-.22 1.6-.37 2.26-.45.68-.08 1.42-.1 2.21-.06 1.43.07 2.72.42 3.82 1.03.61.34 1.15.76 1.6 1.25l.08-.2a8.97 8.97 0 0 1 2.98-3.8 14.32 14.32 0 0 1 5.32-2.51c2.81-.74 5.25-.75 7.23-.05a9.1 9.1 0 0 1 2.64 1.45l.02.02a7.25 7.25 0 0 1 1.87 2.36l.32.63.1.24.15.53.01.04c.4 1.47.33 2.98-.2 4.5a9 9 0 0 1 -3.03 4.01 14.22 14.22 0 0 1 -5.3 2.52c-2.85.74-5.31.75-7.31.04a9.3 9.3 0 0 1 -1.86-.9l.3 1.36c.18.77-.28 1.54-1.05 1.74l-3.6.93c-.42.12-.86.03-1.2-.21-1.1.86-2.5 1.51-4.14 1.94-2.05.53-3.94.63-5.62.28l-.04.12c-.15.47-.53.83-1.02.96l-5.64 1.47c-.58.15-1.2-.08-1.54-.57l-.5-.7-3.75.97-.11.88c-.08.6-.5 1.08-1.08 1.23l-5.52 1.44a1.45 1.45 0 0 1 -1.79-1.74l.56-2.47c-.9.43-1.98.83-3.26 1.16l-1.53.4.61 2.57c.18.78-.28 1.55-1.05 1.75l-5.66 1.47c-.13.04-.25.05-.37.05z" fill="#fefefe"/><path d="m58 10.86c-2.47.64-3.18 2.5-2.13 5.59.77 1.53 2.04 2.07 3.82 1.6 1.4-.36 2.26-1.1 2.56-2.24a4.6 4.6 0 0 0 -.38-3.34 3.18 3.18 0 0 0 -1.5-1.52 3.47 3.47 0 0 0 -2.37-.1zm-.68-3.12c2.55-.66 4.68-.7 6.4-.09.8.29 1.54.7 2.2 1.22a5.77 5.77 0 0 1 1.5 1.9l.32.63.16.54a5.95 5.95 0 0 1 -.17 3.62 7.53 7.53 0 0 1 -2.56 3.36c-1.27 1-2.86 1.75-4.76 2.25-2.58.66-4.73.7-6.46.07a6.17 6.17 0 0 1 -3.65-3l-.16-.5-.2-.56-.17-.5a6.37 6.37 0 0 1 .26-3.53 7.52 7.52 0 0 1 2.52-3.17c1.26-1 2.85-1.74 4.77-2.24zm-15.54 13.4-.65-2.75 7.75-2.02 1.61 7.04-3.6.93-.54-1.17c-1.01 1.36-2.62 2.33-4.8 2.9-2.22.57-4.16.58-5.84.03a5.8 5.8 0 0 1 -3.57-2.9l-.35-.76-.15-.69c-.47-2-.08-3.84 1.16-5.52a8.48 8.48 0 0 1 2.5-2.24c1.05-.62 2.3-1.13 3.76-1.5.78-.2 1.47-.35 2.07-.42s1.25-.1 1.95-.05c1.23.06 2.29.34 3.2.85.9.5 1.59 1.21 2.05 2.13l.03.07-5.38 1.4c-.68-.96-1.78-1.25-3.3-.85-2.5.65-3.18 2.54-2.05 5.68.73 1.47 2.09 1.95 4.06 1.44a4.5 4.5 0 0 0 1.7-.89c.54-.43.83-.88.86-1.35zm-18.82 4.78 3.57-.93-2.84-4.1zm-3.02-8.11 5.78-1.5 9.15 11.12-5.64 1.46-1.09-1.51-5.66 1.47-.24 1.86-5.52 1.43zm-11.92 6.24.6 2.84 2.46-.64a2.9 2.9 0 0 0 1.58-.92c.35-.44.41-.89.18-1.35-.35-.7-1.4-.82-3.14-.36zm-6.37-1.49 8.28-2.15c1.5-.4 2.77-.58 3.8-.55a5.96 5.96 0 0 1 2.68.49c.72.34 1.26.87 1.62 1.59.15.3.26.64.35 1.03.58 2.87-1.47 4.91-6.15 6.13l-2.9.75.94 3.97-5.67 1.48z" fill="#1f6bb2"/></g></svg>
